<?xml version="1.0" encoding="iso-8859-1"?>
<!-- Generator: Adobe Illustrator 19.0.0, SVG Export Plug-In . SVG Version: 6.00 Build 0)  -->
<svg version="1.1" id="Layer_1" xmlns="http://www.w3.org/2000/svg" xmlns:xlink="http://www.w3.org/1999/xlink" x="0px" y="0px"
	 viewBox="0 0 512 512" style="enable-background:new 0 0 512 512;" xml:space="preserve">
<g>
	<rect x="39.858" y="359.934" style="fill:#7B7B53;" width="128.089" height="32.021"/>
	<rect x="191.956" y="359.934" style="fill:#7B7B53;" width="128.089" height="32.021"/>
	<rect x="344.053" y="359.934" style="fill:#7B7B53;" width="128.089" height="32.021"/>
	<path style="fill:#7B7B53;" d="M167.942,247.86v-56.037c0-29.83-20.424-54.824-48.032-61.943V47.728H87.888v82.152
		C60.281,137,39.856,161.994,39.856,191.824v32.021"/>
	<path style="fill:#7B7B53;" d="M320.042,247.86v-56.037c0-29.83-20.424-54.824-48.031-61.943V47.728H239.99v82.152
		c-27.607,7.119-48.032,32.113-48.032,61.943v32.021"/>
	<path style="fill:#7B7B53;" d="M472.143,247.86v-56.037c0-29.83-20.424-54.824-48.032-61.943V47.728H392.09v82.152
		c-27.607,7.119-48.032,32.113-48.032,61.943v32.021"/>
</g>
<g>
	<rect x="87.886" y="47.728" style="fill:#FBB049;" width="32.021" height="32.021"/>
	<rect x="239.994" y="47.728" style="fill:#FBB049;" width="32.021" height="32.021"/>
	<rect x="392.092" y="47.728" style="fill:#FBB049;" width="32.021" height="32.021"/>
</g>
<g>
	<rect x="39.858" y="207.836" style="fill:#FFFFFF;" width="128.089" height="56.037"/>
	<rect x="191.956" y="207.836" style="fill:#FFFFFF;" width="128.089" height="56.037"/>
	<rect x="344.053" y="207.836" style="fill:#FFFFFF;" width="128.089" height="56.037"/>
</g>
<g>
	<rect x="23.846" y="239.858" style="fill:#FA9C1C;" width="32.021" height="152.098"/>
	<rect x="456.136" y="239.858" style="fill:#FA9C1C;" width="32.021" height="152.098"/>
	<rect x="7.836" y="263.867" style="fill:#FA9C1C;" width="496.328" height="96.067"/>
</g>
<polyline style="fill:#FBB049;" points="7.836,359.935 7.836,263.871 504.164,263.871 "/>
<rect x="7.836" y="391.34" style="fill:#FA9C1C;" width="496.328" height="96.067"/>
<polyline style="fill:#FBB049;" points="7.836,487.403 7.836,391.338 504.164,391.338 "/>
<g>
	<rect x="55.864" y="416.142" style="fill:#1D1D1B;" width="16.01" height="15.672"/>
	<rect x="55.864" y="448.165" style="fill:#1D1D1B;" width="16.01" height="15.672"/>
	<rect x="440.12" y="416.142" style="fill:#1D1D1B;" width="16.011" height="15.672"/>
	<rect x="440.12" y="448.165" style="fill:#1D1D1B;" width="16.011" height="15.672"/>
	<rect x="55.864" y="288.054" style="fill:#1D1D1B;" width="16.01" height="15.672"/>
	<rect x="55.864" y="320.076" style="fill:#1D1D1B;" width="16.01" height="15.672"/>
	<rect x="440.12" y="288.054" style="fill:#1D1D1B;" width="16.011" height="15.672"/>
	<rect x="440.12" y="320.076" style="fill:#1D1D1B;" width="16.011" height="15.672"/>
	<rect x="119.908" y="408.139" style="fill:#1D1D1B;" width="112.072" height="15.672"/>
	<rect x="175.95" y="440.162" style="fill:#1D1D1B;" width="32.021" height="15.672"/>
	<rect x="207.972" y="456.167" style="fill:#1D1D1B;" width="32.021" height="15.672"/>
	<rect x="280.019" y="424.145" style="fill:#1D1D1B;" width="40.025" height="15.672"/>
	<rect x="336.05" y="448.165" style="fill:#1D1D1B;" width="32.021" height="15.672"/>
	<rect x="368.072" y="432.148" style="fill:#1D1D1B;" width="24.016" height="15.672"/>
	<rect x="111.905" y="312.073" style="fill:#1D1D1B;" width="16.01" height="15.672"/>
	<rect x="127.911" y="296.056" style="fill:#1D1D1B;" width="112.072" height="15.672"/>
	<rect x="239.994" y="280.051" style="fill:#1D1D1B;" width="16.01" height="15.672"/>
	<rect x="256" y="328.079" style="fill:#1D1D1B;" width="96.067" height="15.672"/>
	<rect x="344.053" y="296.056" style="fill:#1D1D1B;" width="32.021" height="15.672"/>
	<rect x="376.075" y="312.073" style="fill:#1D1D1B;" width="32.021" height="15.672"/>
	<rect x="71.878" y="15.876" style="fill:#1D1D1B;" width="64.044" height="15.672"/>
	<rect x="223.978" y="15.876" style="fill:#1D1D1B;" width="64.044" height="15.672"/>
	<rect x="376.075" y="15.876" style="fill:#1D1D1B;" width="64.044" height="15.672"/>
	<rect x="71.878" y="224.009" style="fill:#1D1D1B;" width="16.011" height="15.672"/>
	<rect x="95.889" y="224.009" style="fill:#1D1D1B;" width="16.011" height="15.672"/>
	<rect x="119.908" y="224.009" style="fill:#1D1D1B;" width="16.011" height="15.672"/>
	<rect x="223.978" y="224.009" style="fill:#1D1D1B;" width="16.011" height="15.672"/>
	<rect x="247.997" y="224.009" style="fill:#1D1D1B;" width="16.011" height="15.672"/>
	<rect x="272.006" y="224.009" style="fill:#1D1D1B;" width="16.011" height="15.672"/>
	<rect x="424.114" y="224.009" style="fill:#1D1D1B;" width="16.011" height="15.672"/>
	<rect x="400.095" y="224.009" style="fill:#1D1D1B;" width="16.011" height="15.672"/>
	<rect x="376.075" y="224.009" style="fill:#1D1D1B;" width="16.011" height="15.672"/>
	<path style="fill:#1D1D1B;" d="M127.745,124.078V39.892H80.052v84.185c-28.566,10.018-48.032,37.056-48.032,67.746v32.021h15.672
		v-8.174h112.413v32.19h15.672v-56.037C175.777,161.134,156.311,134.096,127.745,124.078z M112.074,55.564v16.35h-16.35v-16.35
		H112.074z M160.106,199.998H47.693v-8.175c0-25.603,17.334-47.955,42.153-54.356l5.879-1.516V87.585h16.35v48.367l5.879,1.516
		c24.819,6.4,42.153,28.752,42.153,54.356v8.174H160.106z"/>
	<path style="fill:#1D1D1B;" d="M279.846,124.078V39.892h-47.693v84.185c-28.566,10.018-48.032,37.056-48.032,67.746v56.037h15.672
		v-32.19h112.413v32.19h15.672v-56.037C327.878,161.134,308.412,134.096,279.846,124.078z M264.175,55.564v16.35h-16.35v-16.35
		H264.175z M312.207,199.998H199.793v-8.175c0-25.603,17.334-47.955,42.153-54.356l5.879-1.516V87.585h16.35v48.367l5.879,1.516
		c24.819,6.4,42.153,28.752,42.153,54.356v8.174H312.207z"/>
	<path style="fill:#1D1D1B;" d="M431.948,124.078V39.892h-47.693v84.185c-28.566,10.018-48.032,37.056-48.032,67.746v56.037h15.672
		v-32.19h112.413v8.174h15.672v-32.021C479.979,161.134,460.513,134.096,431.948,124.078z M416.276,55.564v16.35h-16.35v-16.35
		H416.276z M351.894,199.998v-8.175c0-25.603,17.334-47.955,42.153-54.356l5.879-1.516V87.585h16.35v48.367l5.879,1.516
		c24.819,6.4,42.153,28.752,42.153,54.356v8.175H351.894V199.998z"/>
</g>
<g>
	<rect x="63.877" y="175.981" style="fill:#FFFFFF;" width="40.025" height="15.672"/>
	<rect x="215.975" y="175.981" style="fill:#FFFFFF;" width="40.025" height="15.672"/>
	<rect x="368.072" y="175.981" style="fill:#FFFFFF;" width="40.025" height="15.672"/>
</g>
<path style="fill:#1D1D1B;" d="M512,368.039V256.035h-16.01v-24.016h-47.693v24.016H63.704v-24.016H16.01v24.016H0v112.004h16.01
	v16.081H0v112.004h512V384.12h-16.01v-16.081H512z M463.969,247.691h16.35v8.345h-16.35V247.691z M31.682,247.691h16.35v8.345
	h-16.35V247.691z M496.328,399.792v32.361h-16.18v15.672h16.18v32.628H15.672v-8.613h16.18v-15.672h-16.18v-56.376H496.328z
	 M31.682,384.12v-16.081h16.35v16.081H31.682z M63.704,384.12v-16.081h96.402v16.081H63.704z M175.777,384.12v-16.081h8.345v16.081
	H175.777z M199.793,384.12v-16.081h112.413v16.081H199.793z M327.878,384.12v-16.081h8.345v16.081H327.878z M351.894,384.12v-16.081
	h96.403v16.081H351.894z M463.969,384.12v-16.081h16.35v16.081H463.969z M15.672,352.367v-56.644h16.18v-15.672h-16.18v-8.345
	h480.657v48.371h-16.18v15.672h16.18v16.618H15.672z"/>
<g>
</g>
<g>
</g>
<g>
</g>
<g>
</g>
<g>
</g>
<g>
</g>
<g>
</g>
<g>
</g>
<g>
</g>
<g>
</g>
<g>
</g>
<g>
</g>
<g>
</g>
<g>
</g>
<g>
</g>
</svg>
