<?xml version="1.0" encoding="utf-8"?>
<!-- Generator: Adobe Illustrator 25.0.0, SVG Export Plug-In . SVG Version: 6.00 Build 0)  -->
<svg version="1.1" id="Слой_1" xmlns="http://www.w3.org/2000/svg" xmlns:xlink="http://www.w3.org/1999/xlink" x="0px" y="0px"
	 viewBox="0 0 21 24" style="enable-background:new 0 0 21 24;" xml:space="preserve">
<style type="text/css">
	.st0{fill:#74ABFF;}
</style>
<path class="st0" d="M20.7,14.9l-1.5,0.9L17.7,15l1.6-0.9c0.4-0.2-0.4-1.6-0.8-1.4l-2.4,1.4L14.2,13v-2l1.9-1.1l2.4,1.4
	c0.4,0.2,1.2-1.2,0.8-1.4L17.7,9l1.4-0.8l1.5,0.9c0.3,0.2,0.9-0.8,0.6-1l-1-0.5L21.2,7c0.4-0.3-0.5-1.8-0.9-1.6l-0.9,0.5V4.8
	c0-0.3-1.2-0.3-1.2,0v1.8l-1.4,0.8V5.5c0-0.4-1.6-0.4-1.6,0v2.8l-1.9,1.1l-1.7-1V6.2L14,4.8c0.4-0.2-0.4-1.6-0.8-1.4l-1.6,0.9V2.8
	l1.5-0.9c0.3-0.2-0.3-1.2-0.6-1l-1,0.5v-1c0-0.5-1.8-0.5-1.8,0v1l-1-0.5c-0.3-0.2-0.9,0.8-0.6,1l1.5,0.9v1.6L8.1,3.4
	C7.7,3.2,6.9,4.6,7.3,4.8l2.4,1.4v2.2L8,9.4L6.1,8.3V5.5c0-0.4-1.6-0.4-1.6,0v1.9L3.1,6.6V4.8c0-0.3-1.2-0.3-1.2,0v1.1L1,5.4
	C0.6,5.1-0.3,6.8,0.1,7L1,7.5L0.1,8.1c-0.3,0.2,0.3,1.2,0.6,1l1.5-0.9L3.6,9L2,9.9c-0.4,0.2,0.4,1.6,0.8,1.4l2.4-1.4L7.1,11v2
	l-1.9,1.1l-2.4-1.4c-0.4-0.2-1.2,1.2-0.8,1.4L3.6,15l-1.4,0.8l-1.5-0.9c-0.3-0.2-0.9,0.8-0.6,1l1,0.5L0.1,17
	c-0.4,0.3,0.5,1.8,0.9,1.6L2,18.1v1.1c0,0.3,1.2,0.3,1.2,0v-1.8l1.4-0.8v1.9c0,0.4,1.6,0.4,1.6,0v-2.8L8,14.6l1.7,1v2.2l-2.4,1.4
	c-0.4,0.2,0.4,1.6,0.8,1.4l1.6-0.9v1.6l-1.5,0.9c-0.3,0.2,0.3,1.2,0.6,1l1-0.5v1c0,0.5,1.8,0.5,1.8,0v-1l1,0.5
	c0.3,0.2,0.9-0.8,0.6-1l-1.5-0.9v-1.6l1.6,0.9c0.4,0.2,1.2-1.2,0.8-1.4l-2.4-1.4v-2.2l1.7-1l1.9,1.1v2.8c0,0.4,1.6,0.4,1.6,0v-1.9
	l1.4,0.8v1.8c0,0.3,1.2,0.3,1.2,0v-1.1l0.9,0.5c0.4,0.3,1.4-1.4,0.9-1.6l-0.9-0.5l1-0.5C21.5,15.8,20.9,14.8,20.7,14.9L20.7,14.9z
	 M10.7,14.4l-2-1.2v-2.4l2-1.2l2,1.2v2.4L10.7,14.4z"/>
</svg>
