<?xml version="1.0" encoding="UTF-8" standalone="no"?>
<svg
   xmlns:dc="http://purl.org/dc/elements/1.1/"
   xmlns:cc="http://creativecommons.org/ns#"
   xmlns:rdf="http://www.w3.org/1999/02/22-rdf-syntax-ns#"
   xmlns:svg="http://www.w3.org/2000/svg"
   xmlns="http://www.w3.org/2000/svg"
   xmlns:sodipodi="http://sodipodi.sourceforge.net/DTD/sodipodi-0.dtd"
   xmlns:inkscape="http://www.inkscape.org/namespaces/inkscape"
   version="1.1"
   id="Слой_1"
   x="0px"
   y="0px"
   viewBox="0 0 212 280"
   xml:space="preserve"
   sodipodi:docname="android-download-icon.svg"
   width="212"
   height="280"
   inkscape:version="1.0.1 (3bc2e813f5, 2020-09-07)"><metadata
   id="metadata31"><rdf:RDF><cc:Work
       rdf:about=""><dc:format>image/svg+xml</dc:format><dc:type
         rdf:resource="http://purl.org/dc/dcmitype/StillImage" /><dc:title></dc:title></cc:Work></rdf:RDF></metadata><defs
   id="defs29" /><sodipodi:namedview
   pagecolor="#ffffff"
   bordercolor="#666666"
   borderopacity="1"
   objecttolerance="10"
   gridtolerance="10"
   guidetolerance="10"
   inkscape:pageopacity="0"
   inkscape:pageshadow="2"
   inkscape:window-width="1920"
   inkscape:window-height="1017"
   id="namedview27"
   showgrid="false"
   inkscape:zoom="2.590693"
   inkscape:cx="51.888237"
   inkscape:cy="174.59151"
   inkscape:window-x="-8"
   inkscape:window-y="-8"
   inkscape:window-maximized="1"
   inkscape:current-layer="layer1" />
<style
   type="text/css"
   id="style2">
	.st0{fill-rule:evenodd;clip-rule:evenodd;fill:#FAFAFA;}
	.st1{opacity:0.8;}
	.st2{fill:#FFFFFF;}
	.st3{opacity:4.000000e-02;}
	.st4{fill:#212121;}
</style>





<g
   inkscape:groupmode="layer"
   id="layer2"
   inkscape:label="Layer 2"><g
     id="g871"
     transform="translate(-205.13113,67.926428)"><circle
       cx="312.24469"
       cy="82.412361"
       r="80.950996"
       fill="#ac0735"
       id="circle2" /><rect
       x="251.521"
       y="89.582367"
       width="121.502"
       height="33.3825"
       rx="16.691299"
       fill="#ffffff"
       id="rect26" /><path
       d="m 277.95951,-11.407238 5.184,-12.6 h 3.024 l 5.112,12.6 h -2.826 l -1.278,-3.312 h -5.202 l -1.296,3.312 z m 4.824,-5.4 h 3.6 l -1.782,-4.644 z m 9.4036,5.4 v -9.378 h 2.466 v 0.738 c 0.36,-0.3 0.756,-0.528 1.188,-0.684 0.444,-0.156 0.924,-0.234 1.44,-0.234 1.08,0 1.968,0.348 2.664,1.044 0.696,0.696 1.044,1.59 1.044,2.682 v 5.832 h -2.466 v -5.472 c 0,-0.588 -0.18,-1.062 -0.54,-1.422 -0.348,-0.36 -0.816,-0.54 -1.404,-0.54 -0.408,0 -0.78,0.084 -1.116,0.252 -0.324,0.156 -0.594,0.384 -0.81,0.684 v 6.498 z m 17.6716,0 v -0.774 c -0.372,0.3 -0.786,0.528 -1.242,0.684 -0.456,0.144 -0.93,0.216 -1.422,0.216 -0.66,0 -1.2836,-0.126 -1.8716,-0.378 -0.576,-0.252 -1.08,-0.594 -1.512,-1.026 -0.432,-0.432 -0.774,-0.942 -1.026,-1.53 -0.24,-0.588 -0.36,-1.218 -0.36,-1.89 0,-0.672 0.126,-1.302 0.378,-1.89 0.252,-0.588 0.594,-1.098 1.026,-1.53 0.432,-0.432 0.942,-0.768 1.53,-1.008 0.6,-0.252 1.2356,-0.378 1.9076,-0.378 0.456,0 0.9,0.066 1.332,0.198 0.444,0.12 0.852,0.3 1.224,0.54 v -3.834 l 2.466,-0.54 v 13.14 z m -5.0036,-4.698 c 0,0.756 0.264,1.398 0.792,1.926 0.528,0.528 1.1756,0.792 1.9436,0.792 0.456,0 0.87,-0.078 1.242,-0.234 0.384,-0.156 0.714,-0.378 0.99,-0.666 v -3.654 c -0.264,-0.276 -0.594,-0.492 -0.99,-0.648 -0.384,-0.156 -0.798,-0.234 -1.242,-0.234 -0.78,0 -1.4336,0.264 -1.9616,0.792 -0.516,0.516 -0.774,1.158 -0.774,1.926 z m 9.3746,4.698 v -9.378 h 2.466 v 1.026 c 0.3,-0.408 0.66,-0.714 1.08,-0.918 0.432,-0.216 0.906,-0.324 1.42199,-0.324 0.24,0.012 0.438,0.036 0.594,0.072 0.168,0.024 0.312,0.072 0.432,0.144 v 2.16 c -0.18,-0.084 -0.378,-0.144 -0.594,-0.18 -0.216,-0.048 -0.438,-0.072 -0.666,-0.072 -0.47999,0 -0.92399,0.12 -1.33199,0.36 -0.396,0.24 -0.708,0.588 -0.936,1.044 v 6.066 z m 6.44099,-4.68 c 0,-0.684 0.126,-1.32 0.378,-1.908 0.264,-0.6 0.618,-1.116 1.062,-1.548 0.456,-0.444 0.99,-0.792 1.602,-1.044 0.612,-0.252 1.266,-0.378 1.962,-0.378 0.696,0 1.35,0.126 1.962,0.378 0.612,0.252 1.14,0.6 1.584,1.044 0.456,0.432 0.81,0.948 1.062,1.548 0.264,0.588 0.396,1.224 0.396,1.908 0,0.684 -0.132,1.326 -0.396,1.926 -0.252,0.588 -0.606,1.098 -1.062,1.53 -0.444,0.432 -0.972,0.774 -1.584,1.026 -0.612,0.252 -1.266,0.378 -1.962,0.378 -0.696,0 -1.35,-0.126 -1.962,-0.378 -0.612,-0.252 -1.146,-0.594 -1.602,-1.026 -0.444,-0.432 -0.798,-0.942 -1.062,-1.53 -0.252,-0.6 -0.378,-1.242 -0.378,-1.926 z m 5.004,2.718 c 0.72,0 1.332,-0.264 1.836,-0.792 0.504,-0.528 0.756,-1.17 0.756,-1.926 0,-0.768 -0.252,-1.416 -0.756,-1.944 -0.504,-0.528 -1.116,-0.792 -1.836,-0.792 -0.72,0 -1.332,0.264 -1.836,0.792 -0.504,0.528 -0.756,1.176 -0.756,1.944 0,0.756 0.252,1.398 0.756,1.926 0.504,0.528 1.116,0.792 1.836,0.792 z m 7.74401,-8.532 c -0.384,0 -0.714,-0.138 -0.99,-0.414 -0.276,-0.276 -0.414,-0.606 -0.414,-0.99 0,-0.384 0.138,-0.714 0.414,-0.99 0.276,-0.276 0.606,-0.414 0.99,-0.414 0.384,0 0.714,0.138 0.99,0.414 0.276,0.276 0.414,0.606 0.414,0.99 0,0.384 -0.138,0.714 -0.414,0.99 -0.276,0.276 -0.606,0.414 -0.99,0.414 z m 1.242,1.116 v 9.378 h -2.466 v -9.378 z m 8.931,9.378 v -0.774 c -0.372,0.3 -0.786,0.528 -1.242,0.684 -0.456,0.144 -0.93,0.216 -1.422,0.216 -0.66,0 -1.284,-0.126 -1.872,-0.378 -0.576,-0.252 -1.08,-0.594 -1.512,-1.026 -0.432,-0.432 -0.774,-0.942 -1.026,-1.53 -0.24,-0.588 -0.36,-1.218 -0.36,-1.89 0,-0.672 0.126,-1.302 0.378,-1.89 0.252,-0.588 0.594,-1.098 1.026,-1.53 0.432,-0.432 0.942,-0.768 1.53,-1.008 0.6,-0.252 1.236,-0.378 1.908,-0.378 0.456,0 0.9,0.066 1.332,0.198 0.444,0.12 0.852,0.3 1.224,0.54 v -3.834 l 2.466,-0.54 v 13.14 z m -5.004,-4.698 c 0,0.756 0.264,1.398 0.792,1.926 0.528,0.528 1.176,0.792 1.944,0.792 0.456,0 0.87,-0.078 1.242,-0.234 0.384,-0.156 0.714,-0.378 0.99,-0.666 v -3.654 c -0.264,-0.276 -0.594,-0.492 -0.99,-0.648 -0.384,-0.156 -0.798,-0.234 -1.242,-0.234 -0.78,0 -1.434,0.264 -1.962,0.792 -0.516,0.516 -0.774,1.158 -0.774,1.926 z"
       fill="#000000"
       id="path28" /></g></g><g
   inkscape:groupmode="layer"
   id="layer1"
   inkscape:label="Layer 1"><g
     id="g888"
     transform="matrix(0.54420237,0,0,0.54420237,38.032228,29.463965)"><g
       id="g6">
	<path
   class="st0"
   d="m 69.62286,115.57564 c -2.792872,-3.08179 -7.222946,-3.08179 -10.015819,0 -2.792873,3.08179 -2.792873,8.0897 0,11.07519 l 18.009214,19.93533 c -2.792873,2.31134 -5.393134,4.9116 -7.897089,7.60817 -7.222946,7.9934 -13.001304,17.52769 -16.949848,28.02504 -3.948544,10.68996 -5.97097,21.86145 -5.97097,33.22555 H 202.9103 c 0,-11.3641 -2.02242,-22.6319 -5.97097,-33.03294 -3.94854,-10.49735 -9.63059,-20.03164 -16.94985,-28.02504 -2.50395,-2.79287 -5.10421,-5.29682 -7.89708,-7.60817 l 18.00921,-19.93533 c 2.79287,-3.08179 2.79287,-8.0897 0,-11.07519 -2.79287,-3.08179 -7.22295,-3.08179 -10.01582,0 l -20.41686,22.5356 c -1.6372,-0.96306 -3.37071,-1.73351 -5.10422,-2.60026 -9.43798,-4.33377 -19.64641,-6.54881 -29.85484,-6.54881 -10.20844,0 -20.41687,2.21504 -29.854849,6.54881 -1.733507,0.77045 -3.370708,1.6372 -5.104215,2.60026 z"
   id="path4"
   style="stroke-width:0.96306" />
</g><g
       class="st1"
       id="g12"
       transform="matrix(0.96305958,0,0,0.96305958,42.079357,110.47143)">
	<path
   class="st2"
   d="m 28.6,5.3 c -2.9,-3.2 -7.5,-3.2 -10.4,0 -1.7,1.9 -2.4,4.4 -2.1,6.8 0.2,-1.7 0.9,-3.4 2.1,-4.7 2.9,-3.2 7.5,-3.2 10.4,0 l 21.2,23.4 c 1.7,-1 3.5,-1.8 5.3,-2.7 9.8,-4.5 20.4,-6.8 31,-6.8 10.6,0 21.2,2.3 31,6.8 1.8,0.8 3.5,1.7 5.3,2.7 L 143.6,7.4 c 2.9,-3.2 7.5,-3.2 10.4,0 1.2,1.3 1.9,3 2.1,4.7 0.3,-2.4 -0.4,-4.9 -2.1,-6.8 -2.9,-3.2 -7.5,-3.2 -10.4,0 l -21.2,23.4 c -1.7,-1 -3.5,-1.8 -5.3,-2.7 -9.8,-4.5 -20.4,-6.8 -31,-6.8 -10.6,0 -21.2,2.3 -31,6.8 -1.8,0.8 -3.5,1.7 -5.3,2.7 z"
   id="path8" />
	<path
   class="st2"
   d="m 28.7,45.6 c 2.6,-2.9 5.3,-5.5 8.2,-7.9 v 2 C 34,42.1 31.3,44.8 28.7,47.6 21.2,55.9 15.2,65.8 11.1,76.7 7.3,87 5.2,97.9 4.9,109 H 167 c -0.2,-11.1 -2.3,-22 -6.1,-32.3 -4.1,-10.9 -10,-20.8 -17.6,-29.1 -2.6,-2.9 -5.3,-5.5 -8.2,-7.9 v -2 c 2.9,2.4 5.6,5.1 8.2,7.9 7.5,8.3 13.5,18.2 17.6,29.1 4.1,10.9 6.2,22.6 6.2,34.3 v 0 H 4.9 v 0 C 4.9,97.2 7,85.5 11.1,74.7 15.2,63.8 21.1,53.9 28.7,45.6 Z"
   id="path10" />
</g><g
       class="st3"
       id="g20"
       transform="matrix(0.96305958,0,0,0.96305958,42.079357,110.47143)">
	<path
   class="st4"
   d="M 18.3,17.9 37,38.6 c 0.3,-0.3 0.7,-0.6 1.1,-0.9 L 18.3,15.8 c -1.2,-1.3 -1.9,-3 -2.1,-4.7 -0.3,2.4 0.4,4.9 2.1,6.8 z"
   id="path14" />
	<path
   class="st4"
   d="m 135.1,38.6 18.7,-20.7 c 1.7,-1.9 2.4,-4.4 2.1,-6.8 -0.2,1.7 -0.9,3.4 -2.1,4.7 l -19.8,22 c 0.4,0.2 0.7,0.5 1.1,0.8 z"
   id="path16" />
	<path
   class="st4"
   d="m 5.1,110 h 162.1 c 0,-0.7 0,-1.4 0,-2 H 5.1 c 0,0.7 0,1.3 0,2 z"
   id="path18" />
</g><path
       d="m 100.05554,180.10063 c 0,4.33377 -3.178094,7.89709 -7.126638,7.89709 -3.948544,0 -7.126641,-3.56332 -7.126641,-7.89709 0,-4.33376 3.178097,-7.89708 7.126641,-7.89708 3.948544,0.0963 7.126638,3.56332 7.126638,7.89708 z"
       id="path22"
       style="stroke-width:0.96306" /><path
       d="m 156.87606,187.99772 c 3.94854,0 7.12664,-3.56332 7.12664,-7.89709 0,-4.33376 -3.1781,-7.89708 -7.12664,-7.89708 -3.94855,0 -7.12665,3.56332 -7.12665,7.89708 0,4.33377 3.1781,7.89709 7.12665,7.89709 z"
       id="path24"
       style="stroke-width:0.96306" /></g></g></svg>
