<svg width="28" height="28" viewBox="0 0 28 28" fill="none" xmlns="http://www.w3.org/2000/svg">
<path d="M14 28L13.6083 27.9946C6.06119 27.787 0 21.597 0 14C0 6.286 6.272 0 14 0C21.714 0 28 6.286 28 14C28 21.728 21.714 28 14 28ZM11.228 19.6C11.648 20.02 12.306 20.02 12.712 19.6L17.598 14.742C17.794 14.546 17.906 14.28 17.906 14C17.906 13.72 17.794 13.454 17.598 13.258L12.712 8.4C12.516 8.19 12.25 8.092 11.984 8.092C11.704 8.092 11.438 8.19 11.228 8.4C10.822 8.82 10.822 9.478 11.242 9.884L15.372 14L11.242 18.116C10.822 18.522 10.822 19.194 11.228 19.6Z" fill="#AC0735"/>
</svg>
