<svg width="1925" height="1064" viewBox="0 0 1925 1064" fill="none" xmlns="http://www.w3.org/2000/svg">
<path fill-rule="evenodd" clip-rule="evenodd" d="M1224.42 27.5C1352.36 34.5491 1490.99 11.566 1595.73 71.8322C1700.96 132.382 1721.66 246.681 1772.78 343.022C1830.52 451.849 1965.15 559.734 1913.38 670.536C1861.28 782.059 1659.81 773.387 1539.76 841.753C1423.24 908.107 1365.67 1049.77 1224.42 1062.87C1082.05 1076.07 977.535 962.103 852.223 905.501C703.333 838.249 477.915 831.566 422.197 700.515C366.641 569.846 532.126 449.096 605.09 324.238C666.614 218.956 691.353 87.9133 814.729 28.8004C935.396 -29.0145 1084.75 19.8044 1224.42 27.5Z" fill="#FFD0DE"/>
<path fill-rule="evenodd" clip-rule="evenodd" d="M489.861 290.219C613.046 282.453 752.651 234.379 851.72 288.066C950.844 341.782 934.078 451.704 951.796 540.548C966.384 613.698 991.912 691.123 945.198 756.805C901.093 818.817 788.755 829.475 714.662 873.963C632.714 923.167 593.275 1012.15 489.861 1030.2C379.913 1049.4 249.115 1027.59 169.799 969.1C92.775 912.304 128.314 818.408 98.6044 741.697C70.6942 669.634 -11.6858 608.544 1.39742 534.294C15.5901 453.747 78.8042 377.038 170.974 330.983C262.098 285.45 379.636 297.168 489.861 290.219Z" fill="#F6AEC3"/>
</svg>
