<svg width="1481" height="821" viewBox="0 0 1481 821" fill="none" xmlns="http://www.w3.org/2000/svg">
<path fill-rule="evenodd" clip-rule="evenodd" d="M1151.99 20.5247C1212.08 25.9691 1277.18 8.21829 1326.37 54.7644C1375.79 101.53 1385.51 189.808 1409.51 264.216C1436.63 348.267 1499.86 431.592 1475.54 517.169C1451.07 603.303 1356.46 596.605 1300.08 649.407C1245.36 700.655 1218.33 810.07 1151.99 820.185C1085.14 830.38 1036.05 742.358 977.206 698.642C907.285 646.7 801.424 641.539 775.258 540.323C749.168 439.402 826.883 346.141 861.148 249.708C890.04 168.395 901.659 67.1845 959.598 21.5292C1016.27 -23.1237 1086.4 14.5811 1151.99 20.5247Z" fill="#FFD0DE"/>
<path fill-rule="evenodd" clip-rule="evenodd" d="M510.02 202.161C638.275 197.265 783.624 166.954 886.771 200.804C989.973 234.671 972.518 303.976 990.964 359.992C1006.15 406.112 1032.73 454.928 984.095 496.34C938.175 535.437 821.214 542.157 744.072 570.207C658.752 601.229 617.689 657.33 510.02 668.715C395.548 680.819 259.367 667.065 176.786 630.19C96.5929 594.38 133.595 535.18 102.662 486.814C73.6034 441.379 -12.1667 402.862 1.45492 356.048C16.2317 305.264 82.0471 256.9 178.01 227.863C272.883 199.155 395.259 206.543 510.02 202.161Z" fill="#F6AEC3"/>
</svg>
